<svg width="45" height="30" viewBox="0 0 45 30" fill="none" xmlns="http://www.w3.org/2000/svg">
<rect x="0.25" y="0.25" width="44.5" height="29.5" rx="3.75" fill="white" stroke="#D2D2D2" stroke-width="0.5"/>
<path d="M13.9123 25.6327V24.2589C13.9204 24.1433 13.9035 24.0274 13.8627 23.9188C13.8219 23.8103 13.7582 23.7115 13.6757 23.6292C13.5932 23.5469 13.494 23.4828 13.3845 23.4414C13.275 23.3999 13.1579 23.382 13.0409 23.3888C12.8877 23.3788 12.7346 23.4097 12.5976 23.4782C12.4606 23.5467 12.3448 23.6502 12.2621 23.778C12.1868 23.6541 12.079 23.5525 11.9501 23.4839C11.8212 23.4154 11.676 23.3826 11.5297 23.3888C11.4023 23.3824 11.2753 23.4091 11.1615 23.4661C11.0476 23.5231 10.9509 23.6086 10.8808 23.7139V23.4437H10.3987V25.6327H10.8854V24.4283C10.875 24.3535 10.8816 24.2773 10.9045 24.2052C10.9274 24.1331 10.9661 24.0669 11.018 24.0114C11.0698 23.9558 11.1334 23.9122 11.2042 23.8838C11.275 23.8553 11.3514 23.8427 11.4277 23.8467C11.7476 23.8467 11.9098 24.0528 11.9098 24.4237V25.6419H12.3965V24.4283C12.3866 24.3535 12.3934 24.2775 12.4165 24.2056C12.4396 24.1337 12.4783 24.0677 12.5301 24.0122C12.5818 23.9568 12.6452 23.9132 12.7159 23.8846C12.7865 23.856 12.8626 23.8431 12.9389 23.8467C13.268 23.8467 13.4256 24.0528 13.4256 24.4237V25.6419L13.9123 25.6327ZM21.1134 23.4437H20.3208V22.7797H19.834V23.4437H19.3937V23.8788H19.8433V24.8863C19.8433 25.3946 20.0426 25.6969 20.6128 25.6969C20.8258 25.6976 21.0347 25.6388 21.2154 25.5274L21.0763 25.1198C20.9471 25.196 20.8003 25.2386 20.6499 25.2435C20.4181 25.2435 20.33 25.0969 20.33 24.8771V23.8788H21.1181L21.1134 23.4437ZM25.225 23.3888C25.1075 23.3854 24.9912 23.4133 24.8884 23.4697C24.7856 23.5262 24.7001 23.6089 24.641 23.7093V23.4437H24.1635V25.6327H24.6456V24.4054C24.6456 24.0436 24.8032 23.8421 25.1091 23.8421C25.2123 23.8407 25.3146 23.8594 25.4104 23.8971L25.5588 23.4391C25.4487 23.4002 25.3327 23.3801 25.2158 23.3796L25.225 23.3888ZM19.0089 23.6177C18.7361 23.4575 18.4223 23.378 18.105 23.3888C17.5442 23.3888 17.178 23.6544 17.178 24.0894C17.178 24.4466 17.4468 24.6665 17.9428 24.7351L18.1746 24.7672C18.4388 24.8038 18.5639 24.8725 18.5639 24.9962C18.5639 25.1656 18.3878 25.2618 18.0587 25.2618C17.794 25.2694 17.5344 25.1887 17.3217 25.0328L17.0899 25.4038C17.3707 25.5975 17.7071 25.697 18.0494 25.6877C18.6891 25.6877 19.0599 25.39 19.0599 24.9733C19.0599 24.5565 18.7679 24.3871 18.2858 24.3184L18.0541 24.2864C17.8455 24.2589 17.6786 24.2177 17.6786 24.0711C17.6786 23.9246 17.8362 23.8147 18.1004 23.8147C18.3446 23.8175 18.584 23.8821 18.7957 24.0024L19.0089 23.6177ZM31.9209 23.3888C31.8033 23.3854 31.687 23.4133 31.5842 23.4697C31.4815 23.5262 31.396 23.6089 31.3368 23.7093V23.4437H30.8594V25.6327H31.3414V24.4054C31.3414 24.0436 31.499 23.8421 31.805 23.8421C31.9081 23.8407 32.0105 23.8594 32.1063 23.8971L32.2546 23.4391C32.1445 23.4002 32.0285 23.3801 31.9116 23.3796L31.9209 23.3888ZM25.7094 24.5337C25.7037 24.6875 25.7305 24.8408 25.7882 24.9838C25.8459 25.1268 25.9332 25.2563 26.0444 25.3641C26.1557 25.4718 26.2885 25.5555 26.4343 25.6096C26.5802 25.6638 26.7359 25.6872 26.8915 25.6785C27.1809 25.6931 27.4654 25.5999 27.6887 25.4175L27.457 25.0328C27.2903 25.1584 27.0871 25.2274 26.8775 25.2297C26.6994 25.2155 26.5331 25.1355 26.4119 25.0057C26.2907 24.8758 26.2234 24.7057 26.2234 24.5291C26.2234 24.3525 26.2907 24.1823 26.4119 24.0525C26.5331 23.9226 26.6994 23.8426 26.8775 23.8284C27.0871 23.8307 27.2903 23.8998 27.457 24.0253L27.6887 23.6406C27.4654 23.4582 27.1809 23.3651 26.8915 23.3796C26.7359 23.3709 26.5802 23.3944 26.4343 23.4485C26.2885 23.5027 26.1557 23.5863 26.0444 23.6941C25.9332 23.8018 25.8459 23.9314 25.7882 24.0743C25.7305 24.2173 25.7037 24.3707 25.7094 24.5245V24.5337ZM30.2243 24.5337V23.4437H29.7422V23.7093C29.6604 23.6053 29.5546 23.5219 29.4337 23.4662C29.3128 23.4104 29.1802 23.3839 29.0469 23.3888C28.7396 23.3888 28.4448 23.5094 28.2275 23.7241C28.0102 23.9388 27.8881 24.23 27.8881 24.5337C27.8881 24.8373 28.0102 25.1285 28.2275 25.3432C28.4448 25.5579 28.7396 25.6785 29.0469 25.6785C29.1802 25.6834 29.3128 25.6569 29.4337 25.6011C29.5546 25.5454 29.6604 25.462 29.7422 25.358V25.6236H30.2243V24.5337ZM28.4304 24.5337C28.4381 24.4048 28.4838 24.281 28.5618 24.1774C28.6398 24.0739 28.7467 23.9952 28.8695 23.9509C28.9922 23.9067 29.1254 23.8989 29.2525 23.9285C29.3797 23.958 29.4954 24.0237 29.5852 24.1174C29.6751 24.2111 29.7353 24.3287 29.7584 24.4557C29.7814 24.5828 29.7664 24.7137 29.7151 24.8324C29.6638 24.9511 29.5785 25.0524 29.4696 25.1238C29.3608 25.1952 29.2332 25.2336 29.1025 25.2343C29.0108 25.2355 28.9198 25.2178 28.8352 25.1825C28.7507 25.1473 28.6744 25.0951 28.6113 25.0293C28.5482 24.9634 28.4995 24.8854 28.4684 24.8001C28.4373 24.7149 28.4243 24.6241 28.4304 24.5337ZM22.613 23.3888C22.3056 23.393 22.0126 23.5177 21.7983 23.7354C21.584 23.9531 21.466 24.246 21.4703 24.5497C21.4746 24.8533 21.6009 25.1428 21.8212 25.3545C22.0416 25.5662 22.3381 25.6828 22.6454 25.6785C22.9789 25.6954 23.3068 25.5894 23.5656 25.3809L23.3338 25.0282C23.1508 25.1732 22.924 25.2538 22.6895 25.2572C22.5301 25.2708 22.3717 25.2223 22.2479 25.1223C22.1241 25.0222 22.0447 24.8784 22.0266 24.7214H23.6722C23.6722 24.6619 23.6722 24.6023 23.6722 24.5382C23.6722 23.8513 23.2411 23.3933 22.6199 23.3933L22.613 23.3888ZM22.613 23.8147C22.6851 23.8131 22.7568 23.8257 22.8241 23.8516C22.8913 23.8774 22.9527 23.9161 23.0048 23.9655C23.0569 24.0148 23.0986 24.0738 23.1276 24.1391C23.1566 24.2043 23.1724 24.2746 23.1739 24.3459H22.015C22.0234 24.1989 22.0897 24.061 22.1997 23.9617C22.3098 23.8624 22.4548 23.8096 22.6037 23.8147H22.613ZM34.6905 24.5382V22.5645H34.227V23.7093C34.1451 23.6053 34.0394 23.5219 33.9185 23.4662C33.7976 23.4104 33.665 23.3839 33.5317 23.3888C33.2243 23.3888 32.9296 23.5094 32.7122 23.7241C32.4949 23.9388 32.3728 24.23 32.3728 24.5337C32.3728 24.8373 32.4949 25.1285 32.7122 25.3432C32.9296 25.5579 33.2243 25.6785 33.5317 25.6785C33.665 25.6834 33.7976 25.6569 33.9185 25.6011C34.0394 25.5454 34.1451 25.462 34.227 25.358V25.6236H34.6905V24.5382ZM35.4948 25.3145C35.5249 25.3141 35.5548 25.3195 35.5828 25.3305C35.6095 25.3412 35.6338 25.3567 35.6547 25.3763C35.6751 25.396 35.6916 25.4193 35.7034 25.445C35.7151 25.4717 35.7212 25.5006 35.7212 25.5297C35.7212 25.5588 35.7151 25.5877 35.7034 25.6144C35.6916 25.6401 35.6751 25.6634 35.6547 25.6831C35.6338 25.7026 35.6095 25.7182 35.5828 25.7289C35.5551 25.741 35.5251 25.7472 35.4948 25.7472C35.4508 25.7469 35.4079 25.7342 35.371 25.7107C35.334 25.6872 35.3046 25.6538 35.2862 25.6144C35.2746 25.5876 35.2686 25.5588 35.2686 25.5297C35.2686 25.5006 35.2746 25.4718 35.2862 25.445C35.298 25.4193 35.3145 25.396 35.3348 25.3763C35.3557 25.3567 35.3801 25.3412 35.4067 25.3305C35.4369 25.3186 35.4693 25.3132 35.5017 25.3145H35.4948ZM35.4948 25.7014C35.5179 25.7016 35.5408 25.6969 35.562 25.6877C35.5819 25.6789 35.6 25.6665 35.6153 25.6511C35.6443 25.6198 35.6604 25.579 35.6604 25.5366C35.6604 25.4942 35.6443 25.4533 35.6153 25.4221C35.6 25.4066 35.5819 25.3942 35.562 25.3854C35.5408 25.3763 35.5179 25.3716 35.4948 25.3717C35.4717 25.3718 35.4488 25.3765 35.4276 25.3854C35.4067 25.3939 35.3878 25.4063 35.3719 25.4221C35.3429 25.4533 35.3269 25.4942 35.3269 25.5366C35.3269 25.579 35.3429 25.6198 35.3719 25.6511C35.3879 25.6668 35.4068 25.6792 35.4276 25.6877C35.4509 25.6977 35.4763 25.7023 35.5017 25.7014H35.4948ZM35.5087 25.429C35.5303 25.4279 35.5516 25.4344 35.5689 25.4473C35.576 25.4531 35.5816 25.4605 35.5852 25.4688C35.5889 25.4772 35.5904 25.4863 35.5898 25.4954C35.5901 25.503 35.5889 25.5105 35.5861 25.5176C35.5833 25.5247 35.579 25.5312 35.5736 25.5366C35.5601 25.5486 35.543 25.5559 35.5249 25.5572L35.5921 25.6327H35.5388L35.4762 25.5572H35.4554V25.6327H35.4113V25.4312L35.5087 25.429ZM35.4577 25.4679V25.5228H35.5087C35.5177 25.5255 35.5274 25.5255 35.5365 25.5228C35.5381 25.5196 35.539 25.5161 35.539 25.5125C35.539 25.5089 35.5381 25.5054 35.5365 25.5022C35.5381 25.499 35.539 25.4955 35.539 25.4919C35.539 25.4883 35.5381 25.4848 35.5365 25.4816C35.5274 25.4789 35.5177 25.4789 35.5087 25.4816L35.4577 25.4679ZM32.9082 24.5382C32.9159 24.4094 32.9616 24.2856 33.0396 24.182C33.1176 24.0785 33.2246 23.9997 33.3473 23.9555C33.47 23.9113 33.6032 23.9035 33.7304 23.933C33.8575 23.9626 33.9732 24.0283 34.063 24.122C34.1529 24.2157 34.2131 24.3333 34.2362 24.4603C34.2592 24.5874 34.2442 24.7183 34.1929 24.837C34.1416 24.9557 34.0563 25.057 33.9474 25.1284C33.8386 25.1998 33.711 25.2382 33.5803 25.2389C33.4886 25.24 33.3976 25.2224 33.313 25.1871C33.2285 25.1518 33.1523 25.0996 33.0891 25.0338C33.026 24.968 32.9773 24.89 32.9462 24.8047C32.9151 24.7194 32.9021 24.6287 32.9082 24.5382ZM16.631 24.5382V23.4437H16.1489V23.7093C16.067 23.6053 15.9613 23.5219 15.8404 23.4662C15.7195 23.4104 15.5869 23.3839 15.4536 23.3888C15.1462 23.3888 14.8515 23.5094 14.6342 23.7241C14.4168 23.9388 14.2947 24.23 14.2947 24.5337C14.2947 24.8373 14.4168 25.1285 14.6342 25.3432C14.8515 25.5579 15.1462 25.6785 15.4536 25.6785C15.5869 25.6834 15.7195 25.6569 15.8404 25.6011C15.9613 25.5454 16.067 25.462 16.1489 25.358V25.6236H16.631V24.5382ZM14.8371 24.5382C14.8448 24.4094 14.8904 24.2856 14.9684 24.182C15.0465 24.0785 15.1534 23.9997 15.2762 23.9555C15.3989 23.9113 15.532 23.9035 15.6592 23.933C15.7864 23.9626 15.902 24.0283 15.9919 24.122C16.0818 24.2157 16.142 24.3333 16.165 24.4603C16.1881 24.5874 16.1731 24.7183 16.1218 24.837C16.0705 24.9557 15.9851 25.057 15.8763 25.1284C15.7675 25.1998 15.6399 25.2382 15.5092 25.2389C15.4171 25.2407 15.3255 25.2235 15.2404 25.1885C15.1554 25.1535 15.0786 25.1014 15.0149 25.0355C14.9513 24.9697 14.9022 24.8914 14.8708 24.8058C14.8394 24.7202 14.8263 24.6291 14.8324 24.5382H14.8371Z" fill="#231F20"/>
<path d="M26.1498 6.7627H18.849V19.7251H26.1498V6.7627Z" fill="#FF5F00"/>
<path d="M19.3126 13.2453C19.3112 11.9967 19.5974 10.7643 20.1496 9.64117C20.7017 8.51808 21.5053 7.53383 22.4994 6.76296C21.2685 5.80726 19.7903 5.21297 18.2337 5.048C16.677 4.88304 15.1049 5.15406 13.6968 5.83009C12.2887 6.50612 11.1016 7.55988 10.271 8.87094C9.44045 10.182 9 11.6975 9 13.2441C9 14.7908 9.44045 16.3063 10.271 17.6173C11.1016 18.9284 12.2887 19.9822 13.6968 20.6582C15.1049 21.3342 16.677 21.6052 18.2337 21.4403C19.7903 21.2753 21.2685 20.681 22.4994 19.7253C21.5056 18.9547 20.7022 17.9708 20.1501 16.8481C19.598 15.7255 19.3116 14.4934 19.3126 13.2453Z" fill="#EB001B"/>
<path d="M36 13.2453C36 14.792 35.5594 16.3076 34.7287 17.6187C33.898 18.9298 32.7107 19.9836 31.3024 20.6595C29.8942 21.3354 28.3218 21.6063 26.7651 21.4411C25.2084 21.2759 23.7302 20.6813 22.4994 19.7253C23.4928 18.954 24.296 17.9698 24.8482 16.8471C25.4005 15.7244 25.6875 14.4924 25.6875 13.2441C25.6875 11.9958 25.4005 10.7639 24.8482 9.64113C24.296 8.5184 23.4928 7.53425 22.4994 6.76293C23.7302 5.80694 25.2084 5.21235 26.7651 5.04715C28.3218 4.88195 29.8942 5.1528 31.3024 5.82873C32.7107 6.50466 33.898 7.55841 34.7287 8.86952C35.5594 10.1806 36 11.6962 36 13.243V13.2453Z" fill="#F79E1B"/>
<path d="M35.2028 18.3518V18.0862H35.3117V18.0312H35.0359V18.0862H35.1541V18.3518H35.2028ZM35.7381 18.3518V18.0312H35.6547L35.5574 18.2602L35.46 18.0312H35.3859V18.3518H35.4461V18.1114L35.5365 18.3198H35.5991L35.6895 18.1114V18.3541L35.7381 18.3518Z" fill="#F79E1B"/>
</svg>
