<svg width="45" height="30" viewBox="0 0 45 30" fill="none" xmlns="http://www.w3.org/2000/svg">
<rect x="0.25" y="0.25" width="44.5" height="29.5" rx="3.75" fill="white" stroke="#D2D2D2" stroke-width="0.5"/>
<path d="M8.43989 10H5.56198C5.4667 9.99994 5.37454 10.0339 5.30209 10.0958C5.22964 10.1577 5.18168 10.2434 5.16683 10.3375L4.00288 17.7172C3.99752 17.7515 3.99966 17.7865 4.00913 17.8198C4.0186 17.8531 4.03519 17.884 4.05775 17.9104C4.0803 17.9367 4.10829 17.9578 4.13979 17.9722C4.17129 17.9867 4.20555 17.9942 4.24021 17.9941H5.61415C5.70949 17.9942 5.8017 17.9601 5.87416 17.8982C5.94661 17.8362 5.99454 17.7504 6.00929 17.6562L6.32322 15.6658C6.33796 15.5717 6.38583 15.4859 6.45819 15.4239C6.53056 15.362 6.62267 15.3279 6.71794 15.3279H7.62899C9.52474 15.3279 10.6188 14.4105 10.9046 12.5926C11.0333 11.7973 10.91 11.1724 10.5376 10.7347C10.1286 10.2542 9.40312 10 8.43989 10ZM8.77191 12.6953C8.61452 13.7279 7.82551 13.7279 7.06258 13.7279H6.6283L6.93297 11.7994C6.94189 11.743 6.97065 11.6916 7.01408 11.6545C7.05751 11.6174 7.11276 11.597 7.16989 11.597H7.36893C7.88863 11.597 8.37887 11.597 8.6322 11.8932C8.78327 12.07 8.82956 12.3325 8.77191 12.6953ZM17.0425 12.662H15.6643C15.6072 12.662 15.552 12.6824 15.5085 12.7195C15.4651 12.7566 15.4363 12.808 15.4274 12.8644L15.3664 13.2499L15.27 13.1102C14.9717 12.6772 14.3064 12.5324 13.6424 12.5324C12.1194 12.5324 10.8187 13.6859 10.5654 15.3039C10.4337 16.111 10.6209 16.8828 11.0788 17.421C11.4988 17.9158 12.0997 18.122 12.8146 18.122C14.0417 18.122 14.7222 17.333 14.7222 17.333L14.6607 17.716C14.6552 17.7502 14.6573 17.7852 14.6666 17.8186C14.676 17.852 14.6925 17.8829 14.7149 17.9093C14.7374 17.9357 14.7654 17.9569 14.7968 17.9715C14.8283 17.9861 14.8625 17.9936 14.8972 17.9937H16.1386C16.2339 17.9937 16.3261 17.9597 16.3986 17.8977C16.4711 17.8358 16.519 17.75 16.5337 17.6558L17.2786 12.9389C17.284 12.9048 17.2821 12.8698 17.2727 12.8365C17.2634 12.8032 17.2469 12.7723 17.2245 12.746C17.202 12.7197 17.1741 12.6985 17.1427 12.684C17.1113 12.6695 17.0771 12.662 17.0425 12.662ZM15.1215 15.3443C14.9885 16.1316 14.3636 16.6601 13.5666 16.6601C13.1664 16.6601 12.8466 16.5318 12.6412 16.2886C12.4376 16.047 12.3601 15.7032 12.425 15.3203C12.5491 14.5397 13.1845 13.9939 13.9693 13.9939C14.3607 13.9939 14.6788 14.1239 14.8884 14.3693C15.0984 14.6171 15.1817 14.963 15.1215 15.3443ZM24.3822 12.662H22.9974C22.9321 12.6621 22.8678 12.6782 22.81 12.7088C22.7523 12.7393 22.703 12.7835 22.6662 12.8375L20.7561 15.651L19.9465 12.9473C19.9216 12.8649 19.8709 12.7926 19.8018 12.7412C19.7327 12.6898 19.6488 12.6621 19.5627 12.662H18.2018C18.1636 12.6619 18.1259 12.671 18.0919 12.6884C18.0579 12.7058 18.0286 12.731 18.0063 12.7621C17.984 12.7931 17.9695 12.829 17.9639 12.8668C17.9583 12.9046 17.9618 12.9432 17.9742 12.9793L19.4996 17.4559L18.0655 19.4804C18.04 19.5163 18.0249 19.5585 18.0218 19.6024C18.0187 19.6464 18.0277 19.6903 18.048 19.7294C18.0682 19.7685 18.0987 19.8013 18.1363 19.8242C18.174 19.8471 18.2171 19.8592 18.2612 19.8591H19.6444C19.7089 19.8592 19.7726 19.8437 19.8298 19.8138C19.8871 19.7838 19.9362 19.7405 19.973 19.6875L24.5792 13.0387C24.6042 13.0027 24.6188 12.9606 24.6215 12.9169C24.6243 12.8732 24.615 12.8296 24.5947 12.7908C24.5744 12.752 24.5439 12.7194 24.5064 12.6968C24.469 12.6741 24.426 12.6621 24.3822 12.662Z" fill="#253B80"/>
<path d="M28.9674 10.0004H26.0891C25.9939 10.0005 25.9018 10.0345 25.8295 10.0963C25.7571 10.1582 25.7092 10.2439 25.6944 10.3379L24.5304 17.7176C24.525 17.7518 24.5271 17.7868 24.5365 17.8201C24.5459 17.8534 24.5624 17.8843 24.5848 17.9106C24.6073 17.9369 24.6352 17.9581 24.6667 17.9725C24.6981 17.987 24.7323 17.9945 24.7669 17.9945H26.2439C26.3106 17.9944 26.375 17.9706 26.4256 17.9272C26.4762 17.8839 26.5097 17.8239 26.52 17.758L26.8503 15.6662C26.8651 15.5721 26.9129 15.4863 26.9853 15.4244C27.0577 15.3624 27.1498 15.3283 27.2451 15.3283H28.1557C30.0519 15.3283 31.1455 14.4109 31.4317 12.593C31.5609 11.7977 31.4367 11.1728 31.0643 10.7352C30.6557 10.2546 29.9307 10.0004 28.9674 10.0004ZM29.2994 12.6957C29.1425 13.7284 28.3535 13.7284 27.5901 13.7284H27.1563L27.4614 11.7998C27.4701 11.7434 27.4988 11.6919 27.5421 11.6548C27.5855 11.6177 27.6407 11.5973 27.6978 11.5974H27.8969C28.4162 11.5974 28.9068 11.5974 29.1602 11.8936C29.3112 12.0704 29.3571 12.333 29.2994 12.6957ZM37.5696 12.6625H36.1923C36.1352 12.6623 36.0799 12.6826 36.0365 12.7198C35.9931 12.7569 35.9645 12.8084 35.9558 12.8649L35.8948 13.2503L35.798 13.1106C35.4996 12.6776 34.8348 12.5329 34.1707 12.5329C32.6478 12.5329 31.3475 13.6863 31.0942 15.3043C30.9629 16.1114 31.1493 16.8832 31.6072 17.4214C32.028 17.9163 32.628 18.1225 33.343 18.1225C34.5701 18.1225 35.2505 17.3334 35.2505 17.3334L35.1891 17.7164C35.1836 17.7507 35.1856 17.7858 35.195 17.8192C35.2045 17.8527 35.221 17.8837 35.2436 17.9101C35.2662 17.9365 35.2942 17.9577 35.3258 17.9722C35.3573 17.9867 35.3917 17.9942 35.4264 17.9941H36.6674C36.7627 17.9941 36.8548 17.96 36.9271 17.898C36.9995 17.8361 37.0474 17.7503 37.0621 17.6562L37.8074 12.9394C37.8127 12.9051 37.8105 12.8701 37.8009 12.8367C37.7914 12.8034 37.7748 12.7725 37.7522 12.7462C37.7296 12.7199 37.7016 12.6988 37.6701 12.6843C37.6386 12.6699 37.6043 12.6624 37.5696 12.6625ZM35.6486 15.3447C35.5165 16.132 34.8907 16.6606 34.0937 16.6606C33.6944 16.6606 33.3737 16.5322 33.1684 16.289C32.9647 16.0475 32.8881 15.7036 32.9521 15.3207C33.077 14.5401 33.7116 13.9943 34.4964 13.9943C34.8878 13.9943 35.2059 14.1244 35.4155 14.3697C35.6263 14.6175 35.7096 14.9634 35.6486 15.3447ZM39.1944 10.2028L38.0131 17.7176C38.0077 17.7518 38.0098 17.7868 38.0192 17.8201C38.0286 17.8534 38.0451 17.8843 38.0676 17.9106C38.09 17.9369 38.118 17.9581 38.1494 17.9725C38.1808 17.987 38.215 17.9945 38.2496 17.9945H39.4372C39.6345 17.9945 39.802 17.8515 39.8323 17.6566L40.9971 10.2773C41.0025 10.2431 41.0004 10.2081 40.9911 10.1748C40.9817 10.1415 40.9652 10.1106 40.9427 10.0842C40.9202 10.0579 40.8923 10.0367 40.8609 10.0222C40.8294 10.0076 40.7952 10.0001 40.7606 10H39.4309C39.3738 10.0002 39.3186 10.0207 39.2753 10.0579C39.2319 10.0951 39.2033 10.1464 39.1944 10.2028Z" fill="#179BD7"/>
</svg>
