<svg width="200" height="80" viewBox="0 0 200 80" fill="none" xmlns="http://www.w3.org/2000/svg">
<path fill-rule="evenodd" clip-rule="evenodd" d="M164.718 36.6041C161.883 39.763 158.301 41.3384 153.97 41.3302C149.639 41.3219 146.071 39.7589 143.265 36.6411C140.459 33.5137 139.056 29.687 139.056 25.161C139.056 20.6939 140.473 16.8822 143.306 13.726C146.14 10.5699 149.721 8.99453 154.051 9.00001C158.384 9.00001 161.956 10.5637 164.765 13.6911C167.575 16.8185 168.977 20.6452 168.974 25.1713C168.971 29.637 167.553 33.448 164.718 36.6041ZM147.085 33.0534C148.923 35.2124 151.245 36.2918 154.051 36.2918C156.857 36.2918 159.165 35.2199 160.977 33.076C162.789 30.9308 163.695 28.2952 163.695 25.1692C163.695 22.0719 162.776 19.4439 160.938 17.2849C159.1 15.126 156.777 14.0466 153.97 14.0466C151.164 14.0466 148.856 15.1185 147.045 17.2623C145.234 19.4062 144.328 22.0418 144.327 25.1692C144.328 28.2678 145.248 30.8959 147.086 33.0534H147.085ZM0 40.8041V9.53426H21.2068V14.4493H5.02443V22.5781H19.3684V27.4932H5.02443V35.8911H21.4116V40.8041H0ZM27.3778 40.8041V9.53426H40.1278C43.4511 9.53426 46.0526 10.4349 47.9323 12.2363C49.812 14.0377 50.7519 16.4575 50.7519 19.4959C50.7519 21.9617 50.1391 23.9945 48.9135 25.5945C47.688 27.1945 46.0263 28.3185 43.9286 28.9665L51.6522 40.8041H45.7331L38.6222 29.9137H32.4192V40.8041H27.3778ZM32.4041 25.0356H39.7594C41.5576 25.0356 42.9881 24.5562 44.0507 23.5973C45.1134 22.6384 45.6447 21.3432 45.6447 19.7117C45.6447 18.0432 45.1266 16.7623 44.0902 15.8692C43.0539 14.976 41.5965 14.5322 39.718 14.5377H32.4041V25.0356ZM56.9211 9.53426V40.8041H78.3346V35.8911H61.9474V27.4932H76.2914V22.5781H61.9474V14.4493H78.1297V9.53426H56.9211ZM91.3289 40.8041V14.6281H82.2556V9.53426H105.468V14.6281H96.3947V40.8041H91.3289ZM110.771 9.53426V40.8041H115.803V29.9137H122.006L129.117 40.8041H135.041L127.318 28.9665C129.417 28.3185 131.079 27.1945 132.305 25.5945C133.53 23.9945 134.143 21.9617 134.143 19.4959C134.143 16.4575 133.203 14.0377 131.323 12.2363C129.444 10.4349 126.843 9.53426 123.521 9.53426H110.771ZM123.152 25.0356H115.797L115.805 14.5377H123.118C124.993 14.5322 126.448 14.976 127.483 15.8692C128.518 16.7623 129.036 18.0432 129.036 19.7117C129.038 21.3432 128.508 22.6384 127.444 23.5973C126.38 24.5562 124.949 25.0356 123.152 25.0356ZM175.056 9.53426V40.8041H180.002V18.5569L195.774 40.8041H199.983V9.53426H195.039V31.1548L179.716 9.53426H175.056Z" fill="#1D1D1B"/>
<path fill-rule="evenodd" clip-rule="evenodd" d="M0 68.8768L8.42293 48.522H10.3778L18.8045 68.8768H16.5489L14.3835 63.5343H4.33082L2.13722 68.8768H0ZM5.15037 61.4795H13.5733L9.37594 51.1727L5.15037 61.4795ZM43.5808 68.8768V48.6658H45.6654V60.7336L56.2838 48.6658H58.9774L51.0545 57.5014L59.3252 68.8768H56.7049L49.6034 59.0877L45.656 63.4501V68.8768H43.5808ZM88.5902 50.774V68.8768H90.7105V50.774H96.9135V48.6658H82.3872V50.774H88.5902ZM122.126 68.8768V48.6658H124.212V68.8768H122.126ZM149.169 48.674L157.122 69.0309H158.97L166.934 48.674H164.679L158.075 66.0843L151.496 48.674H149.169Z" fill="#1D1D1B"/>
</svg>
