<svg width="45" height="30" viewBox="0 0 45 30" fill="none" xmlns="http://www.w3.org/2000/svg">
<rect x="0.25" y="0.25" width="44.5" height="29.5" rx="3.75" fill="white" stroke="#D2D2D2" stroke-width="0.5"/>
<path d="M20.6 20.5074H17.6837L19.5077 9.20508H22.4238L20.6 20.5074Z" fill="#00579F"/>
<path d="M31.1717 9.48119C30.5965 9.2525 29.6841 9 28.556 9C25.6761 9 23.6481 10.539 23.6357 12.7392C23.6118 14.3626 25.0877 15.2642 26.1915 15.8055C27.3198 16.3586 27.7033 16.7196 27.7033 17.2126C27.6918 17.9698 26.7916 18.3188 25.952 18.3188C24.7877 18.3188 24.1639 18.1389 23.2158 17.7176L22.8318 17.537L22.4237 20.0741C23.1077 20.3864 24.3678 20.6635 25.6761 20.6757C28.7361 20.6757 30.7282 19.1605 30.7518 16.8158C30.7634 15.5292 29.9841 14.5433 28.3039 13.7377C27.2839 13.2206 26.6593 12.8719 26.6593 12.3427C26.6712 11.8617 27.1876 11.369 28.339 11.369C29.287 11.3449 29.9836 11.5732 30.5113 11.8018L30.7751 11.9218L31.1717 9.48119Z" fill="#00579F"/>
<path d="M35.0476 16.5034C35.2877 15.8541 36.2119 13.3411 36.2119 13.3411C36.1997 13.3652 36.4515 12.6798 36.5956 12.259L36.7994 13.2329C36.7994 13.2329 37.3516 15.9383 37.4715 16.5034C37.0158 16.5034 35.6236 16.5034 35.0476 16.5034ZM38.6473 9.20508H36.3916C35.696 9.20508 35.1675 9.40931 34.8674 10.1428L30.5356 20.5073H33.5956C33.5956 20.5073 34.0993 19.1123 34.2076 18.8119C34.5433 18.8119 37.52 18.8119 37.9519 18.8119C38.0356 19.2087 38.2998 20.5073 38.2998 20.5073H41L38.6473 9.20508Z" fill="#00579F"/>
<path d="M15.2479 9.20508L12.392 16.9122L12.0799 15.3491C11.5519 13.5455 9.89593 11.5859 8.04797 10.6116L10.6639 20.4954H13.7478L18.3316 9.20508H15.2479Z" fill="#00579F"/>
<path d="M9.73996 9.20508H5.048L5 9.43345C8.66002 10.3714 11.084 12.6322 12.0799 15.3496L11.0599 10.1551C10.892 9.43329 10.3759 9.22889 9.73996 9.20508Z" fill="#FAA61A"/>
</svg>
